<?xml version="1.0" encoding="UTF-8"?>
<svg xmlns="http://www.w3.org/2000/svg" width="1024" height="1024" viewBox="0 0 1024 1024">
  <defs>
    <!-- Gradient for the outer ring -->
    <linearGradient id="ringGradient" x1="0%" y1="0%" x2="100%" y2="100%">
      <stop offset="0%" stop-color="#4DA4FF"/>
      <stop offset="100%" stop-color="#B248FF"/>
    </linearGradient>

    <!-- Clip path to keep inner shading only within the donut -->
    <clipPath id="donutClip">
      <!-- Even-odd rule: big circle minus small circle -->
      <path d="
        M512,512
        m -480,0
        a 480,480 0 1,0 960,0
        a 480,480 0 1,0 -960,0
        M512,512
        m -300,0
        a 300,300 0 1,1 600,0
        a 300,300 0 1,1 -600,0
      " fill-rule="evenodd"/>
    </clipPath>

    <!-- Soft inner shading gradient to create the twist effect -->
    <radialGradient id="twistShade" cx="60%" cy="45%" r="60%">
      <stop offset="0%" stop-color="#1E2A78" stop-opacity="0.50"/>
      <stop offset="60%" stop-color="#2A237A" stop-opacity="0.35"/>
      <stop offset="100%" stop-color="#2A237A" stop-opacity="0"/>
    </radialGradient>

    <!-- Highlight overlay gradient -->
    <linearGradient id="twistHighlight" x1="20%" y1="15%" x2="75%" y2="85%">
      <stop offset="0%" stop-color="#FFFFFF" stop-opacity="0.50"/>
      <stop offset="40%" stop-color="#FFFFFF" stop-opacity="0.18"/>
      <stop offset="100%" stop-color="#FFFFFF" stop-opacity="0"/>
    </linearGradient>
  </defs>

  <!-- Background is transparent by default -->

  <!-- Gradient ring -->
  <circle cx="512" cy="512" r="370"
          fill="none"
          stroke="url(#ringGradient)"
          stroke-width="220"
          stroke-linecap="round"
          stroke-linejoin="round"/>

  <!-- Inner twist: two gentle overlays clipped to the donut -->
  <g clip-path="url(#donutClip)">
    <!-- Shadow lobe -->
    <ellipse cx="560" cy="560" rx="430" ry="300"
             transform="rotate(-28 560 560)"
             fill="url(#twistShade)" />

    <!-- Highlight sweep -->
    <path d="M170,400
             C320,180 720,180 860,420
             C880,460 900,520 900,560
             C620,540 520,620 360,720
             C310,610 260,500 170,400 Z"
          fill="url(#twistHighlight)" opacity="0.7"/>
  </g>
</svg>
